<mxfile host="65bd71144e">
    <diagram id="Dwb8GULyjDsSTdrO3he8" name="Page-1">
        <mxGraphModel dx="1122" dy="769" grid="1" gridSize="10" guides="1" tooltips="1" connect="1" arrows="1" fold="1" page="1" pageScale="1" pageWidth="1169" pageHeight="1654" math="0" shadow="0">
            <root>
                <mxCell id="0"/>
                <mxCell id="1" parent="0"/>
                <mxCell id="2" value="" style="ellipse;html=1;shape=startState;fillColor=#000000;strokeColor=#ff0000;" vertex="1" parent="1">
                    <mxGeometry x="584" y="140" width="30" height="30" as="geometry"/>
                </mxCell>
                <mxCell id="3" value="" style="edgeStyle=orthogonalEdgeStyle;html=1;verticalAlign=bottom;endArrow=open;endSize=8;strokeColor=#ff0000;" edge="1" source="2" parent="1">
                    <mxGeometry relative="1" as="geometry">
                        <mxPoint x="599" y="230" as="targetPoint"/>
                    </mxGeometry>
                </mxCell>
                <mxCell id="6" value="S'authentifier" style="rounded=1;whiteSpace=wrap;html=1;arcSize=40;fontColor=#000000;fillColor=#ffffc0;strokeColor=#ff0000;" vertex="1" parent="1">
                    <mxGeometry x="539" y="240" width="120" height="40" as="geometry"/>
                </mxCell>
                <mxCell id="7" value="" style="edgeStyle=orthogonalEdgeStyle;html=1;verticalAlign=bottom;endArrow=open;endSize=8;strokeColor=#ff0000;entryX=0.495;entryY=-0.085;entryDx=0;entryDy=0;entryPerimeter=0;" edge="1" source="6" parent="1" target="12">
                    <mxGeometry relative="1" as="geometry">
                        <mxPoint x="599" y="340" as="targetPoint"/>
                    </mxGeometry>
                </mxCell>
                <mxCell id="12" value="Avoir un&amp;nbsp;&lt;br&gt;compte" style="rhombus;whiteSpace=wrap;html=1;fillColor=#ffffc0;strokeColor=#ff0000;" vertex="1" parent="1">
                    <mxGeometry x="560" y="350" width="80" height="40" as="geometry"/>
                </mxCell>
                <mxCell id="13" value="N'a pas de compte" style="edgeStyle=orthogonalEdgeStyle;html=1;align=left;verticalAlign=bottom;endArrow=open;endSize=8;strokeColor=#ff0000;" edge="1" source="12" parent="1">
                    <mxGeometry x="-1" relative="1" as="geometry">
                        <mxPoint x="740" y="370" as="targetPoint"/>
                    </mxGeometry>
                </mxCell>
                <mxCell id="14" value="A un compte" style="edgeStyle=orthogonalEdgeStyle;html=1;align=left;verticalAlign=top;endArrow=open;endSize=8;strokeColor=#ff0000;" edge="1" source="12" parent="1">
                    <mxGeometry x="-1" relative="1" as="geometry">
                        <mxPoint x="600" y="450" as="targetPoint"/>
                    </mxGeometry>
                </mxCell>
                <mxCell id="22" value="Créer un compte" style="rounded=1;whiteSpace=wrap;html=1;arcSize=40;fontColor=#000000;fillColor=#ffffc0;strokeColor=#ff0000;" vertex="1" parent="1">
                    <mxGeometry x="740" y="350" width="120" height="40" as="geometry"/>
                </mxCell>
                <mxCell id="23" value="" style="edgeStyle=orthogonalEdgeStyle;html=1;verticalAlign=bottom;endArrow=open;endSize=8;strokeColor=#ff0000;" edge="1" source="22" parent="1">
                    <mxGeometry relative="1" as="geometry">
                        <mxPoint x="800" y="450" as="targetPoint"/>
                    </mxGeometry>
                </mxCell>
                <mxCell id="24" value="Création du&amp;nbsp;&lt;br&gt;Compte" style="rhombus;whiteSpace=wrap;html=1;fillColor=#ffffc0;strokeColor=#ff0000;" vertex="1" parent="1">
                    <mxGeometry x="760" y="450" width="80" height="40" as="geometry"/>
                </mxCell>
                <mxCell id="25" value="no" style="edgeStyle=orthogonalEdgeStyle;html=1;align=left;verticalAlign=bottom;endArrow=open;endSize=8;strokeColor=#ff0000;" edge="1" parent="1">
                    <mxGeometry x="-0.5556" relative="1" as="geometry">
                        <mxPoint x="800" y="580" as="targetPoint"/>
                        <mxPoint x="800" y="490" as="sourcePoint"/>
                        <mxPoint as="offset"/>
                    </mxGeometry>
                </mxCell>
                <mxCell id="26" value="yes" style="edgeStyle=orthogonalEdgeStyle;html=1;align=left;verticalAlign=top;endArrow=open;endSize=8;strokeColor=#ff0000;" edge="1" source="24" parent="1" target="6">
                    <mxGeometry x="-0.9345" relative="1" as="geometry">
                        <mxPoint x="800" y="550" as="targetPoint"/>
                        <Array as="points">
                            <mxPoint x="930" y="470"/>
                            <mxPoint x="930" y="260"/>
                        </Array>
                        <mxPoint as="offset"/>
                    </mxGeometry>
                </mxCell>
                <mxCell id="32" value="" style="shape=sumEllipse;perimeter=ellipsePerimeter;whiteSpace=wrap;html=1;backgroundOutline=1;" vertex="1" parent="1">
                    <mxGeometry x="785" y="580" width="30" height="30" as="geometry"/>
                </mxCell>
                <mxCell id="35" value="Accéder à la librarie" style="swimlane;fontStyle=1;align=center;verticalAlign=middle;childLayout=stackLayout;horizontal=1;startSize=30;horizontalStack=0;resizeParent=0;resizeLast=1;container=0;fontColor=#000000;collapsible=0;rounded=1;arcSize=30;strokeColor=#ff0000;fillColor=#ffffc0;swimlaneFillColor=#ffffc0;dropTarget=0;" vertex="1" parent="1">
                    <mxGeometry x="519" y="450" width="160" height="60" as="geometry"/>
                </mxCell>
                <mxCell id="36" value="Envoyer un ebook vers bibliothèque" style="text;html=1;strokeColor=none;fillColor=none;align=center;verticalAlign=middle;spacingLeft=4;spacingRight=4;whiteSpace=wrap;overflow=hidden;rotatable=0;fontColor=#000000;" vertex="1" parent="35">
                    <mxGeometry y="30" width="160" height="30" as="geometry"/>
                </mxCell>
                <mxCell id="37" value="" style="edgeStyle=orthogonalEdgeStyle;html=1;verticalAlign=bottom;endArrow=open;endSize=8;strokeColor=#ff0000;" edge="1" source="35" parent="1">
                    <mxGeometry relative="1" as="geometry">
                        <mxPoint x="599" y="650" as="targetPoint"/>
                    </mxGeometry>
                </mxCell>
                <mxCell id="51" value="Ebook déjà présent ?&amp;nbsp;" style="rhombus;whiteSpace=wrap;html=1;fillColor=#ffffc0;strokeColor=#ff0000;" vertex="1" parent="1">
                    <mxGeometry x="560" y="650" width="80" height="40" as="geometry"/>
                </mxCell>
                <mxCell id="52" value="Ebook dispo" style="edgeStyle=orthogonalEdgeStyle;html=1;align=left;verticalAlign=bottom;endArrow=open;endSize=8;strokeColor=#ff0000;" edge="1" source="51" parent="1">
                    <mxGeometry x="-1" relative="1" as="geometry">
                        <mxPoint x="820" y="670" as="targetPoint"/>
                        <mxPoint as="offset"/>
                    </mxGeometry>
                </mxCell>
                <mxCell id="53" value="Ebook pas dispo" style="edgeStyle=orthogonalEdgeStyle;html=1;align=left;verticalAlign=top;endArrow=open;endSize=8;strokeColor=#ff0000;" edge="1" source="51" parent="1">
                    <mxGeometry x="-1" relative="1" as="geometry">
                        <mxPoint x="600" y="770" as="targetPoint"/>
                    </mxGeometry>
                </mxCell>
                <mxCell id="58" value="" style="shape=line;html=1;strokeWidth=6;strokeColor=#ff0000;rotation=-90;" vertex="1" parent="1">
                    <mxGeometry x="730" y="660" width="200" height="10" as="geometry"/>
                </mxCell>
                <mxCell id="59" value="" style="edgeStyle=orthogonalEdgeStyle;html=1;verticalAlign=bottom;endArrow=open;endSize=8;strokeColor=#ff0000;" edge="1" parent="1">
                    <mxGeometry relative="1" as="geometry">
                        <mxPoint x="930" y="610" as="targetPoint"/>
                        <mxPoint x="830" y="610" as="sourcePoint"/>
                        <Array as="points">
                            <mxPoint x="830" y="610"/>
                            <mxPoint x="1030" y="610"/>
                        </Array>
                    </mxGeometry>
                </mxCell>
                <mxCell id="66" value="" style="edgeStyle=orthogonalEdgeStyle;html=1;verticalAlign=bottom;endArrow=open;endSize=8;strokeColor=#ff0000;" edge="1" parent="1">
                    <mxGeometry relative="1" as="geometry">
                        <mxPoint x="930" y="729.9999999999998" as="targetPoint"/>
                        <mxPoint x="830" y="729.9999999999998" as="sourcePoint"/>
                        <Array as="points">
                            <mxPoint x="830" y="730"/>
                            <mxPoint x="1030" y="730"/>
                        </Array>
                    </mxGeometry>
                </mxCell>
                <mxCell id="67" value="Ajouter le ebook à ma bibliothèque" style="rounded=1;whiteSpace=wrap;html=1;arcSize=40;fontColor=#000000;fillColor=#ffffc0;strokeColor=#ff0000;" vertex="1" parent="1">
                    <mxGeometry x="930" y="590" width="120" height="40" as="geometry"/>
                </mxCell>
                <mxCell id="69" value="Ajout du ebook dans la liste correspondante au bouton" style="rounded=1;whiteSpace=wrap;html=1;arcSize=40;fontColor=#000000;fillColor=#ffffc0;strokeColor=#ff0000;" vertex="1" parent="1">
                    <mxGeometry x="930" y="690" width="120" height="70" as="geometry"/>
                </mxCell>
                <mxCell id="71" value="Message erreur : &quot;Ebook déjà dans bibliothèque&quot;" style="rounded=1;whiteSpace=wrap;html=1;arcSize=40;fontColor=#000000;fillColor=#ffffc0;strokeColor=#ff0000;" vertex="1" parent="1">
                    <mxGeometry x="539" y="770" width="120" height="40" as="geometry"/>
                </mxCell>
                <mxCell id="72" value="" style="shape=line;html=1;strokeWidth=6;strokeColor=#ff0000;rotation=-90;" vertex="1" parent="1">
                    <mxGeometry x="1060" y="670" width="200" height="10" as="geometry"/>
                </mxCell>
                <mxCell id="73" value="" style="edgeStyle=orthogonalEdgeStyle;html=1;verticalAlign=bottom;endArrow=open;endSize=8;strokeColor=#ff0000;" edge="1" parent="1">
                    <mxGeometry relative="1" as="geometry">
                        <mxPoint x="1150" y="609.4099999999997" as="targetPoint"/>
                        <mxPoint x="1050" y="609.4099999999997" as="sourcePoint"/>
                        <Array as="points">
                            <mxPoint x="1050" y="609.41"/>
                            <mxPoint x="1250" y="609.41"/>
                        </Array>
                    </mxGeometry>
                </mxCell>
                <mxCell id="75" value="" style="edgeStyle=orthogonalEdgeStyle;html=1;verticalAlign=bottom;endArrow=open;endSize=8;strokeColor=#ff0000;" edge="1" parent="1">
                    <mxGeometry relative="1" as="geometry">
                        <mxPoint x="1150" y="729.9999999999999" as="targetPoint"/>
                        <mxPoint x="1050" y="729.9999999999999" as="sourcePoint"/>
                        <Array as="points">
                            <mxPoint x="1050" y="730"/>
                            <mxPoint x="1250" y="730"/>
                        </Array>
                    </mxGeometry>
                </mxCell>
                <mxCell id="78" value="" style="edgeStyle=orthogonalEdgeStyle;html=1;verticalAlign=bottom;endArrow=open;endSize=8;strokeColor=#ff0000;" edge="1" parent="1">
                    <mxGeometry relative="1" as="geometry">
                        <mxPoint x="1260" y="669.9999999999998" as="targetPoint"/>
                        <mxPoint x="1160" y="669.9999999999998" as="sourcePoint"/>
                        <Array as="points">
                            <mxPoint x="1160" y="670"/>
                            <mxPoint x="1360" y="670"/>
                        </Array>
                    </mxGeometry>
                </mxCell>
                <mxCell id="79" value="" style="edgeStyle=orthogonalEdgeStyle;html=1;align=left;verticalAlign=bottom;endArrow=open;endSize=8;strokeColor=#ff0000;" edge="1" parent="1">
                    <mxGeometry x="-0.5556" relative="1" as="geometry">
                        <mxPoint x="598.41" y="899.9999999999998" as="targetPoint"/>
                        <mxPoint x="598.41" y="809.9999999999998" as="sourcePoint"/>
                        <mxPoint as="offset"/>
                    </mxGeometry>
                </mxCell>
                <mxCell id="80" value="" style="shape=sumEllipse;perimeter=ellipsePerimeter;whiteSpace=wrap;html=1;backgroundOutline=1;" vertex="1" parent="1">
                    <mxGeometry x="584" y="900" width="30" height="30" as="geometry"/>
                </mxCell>
            </root>
        </mxGraphModel>
    </diagram>
</mxfile>